<svg width="200" height="200" viewBox="0 0 200 200" fill="none" xmlns="http://www.w3.org/2000/svg">
  <rect width="200" height="200" rx="100" fill="url(#paint0_linear)"/>
  <circle cx="100" cy="76" r="38" fill="#1F2A44" opacity="0.18"/>
  <path d="M68 154C68 132.909 86.9086 115 108 115H116C137.091 115 156 132.909 156 154" fill="#1F2A44" opacity="0.18"/>
  <circle cx="100" cy="78" r="34" fill="#F8E9DF"/>
  <path d="M86 78C86 70.268 92.268 64 100 64C107.732 64 114 70.268 114 78V84C114 91.732 107.732 98 100 98C92.268 98 86 91.732 86 84V78Z" fill="#DC8C6C"/>
  <path d="M120 82C120 91.9411 111.941 100 102 100H98C88.0589 100 80 91.9411 80 82" stroke="#1F2A44" stroke-width="6" stroke-linecap="round" stroke-linejoin="round"/>
  <path d="M76 74C76 60.7452 86.7452 50 100 50C113.255 50 124 60.7452 124 74C116 70 106 68 100 68C94 68 84 70 76 74Z" fill="#1F2A44"/>
  <path d="M70 160C76 144 88 136 100 136C112 136 124 144 130 160" stroke="#1F2A44" stroke-width="10" stroke-linecap="round"/>
  <defs>
    <linearGradient id="paint0_linear" x1="28" y1="14" x2="188" y2="188" gradientUnits="userSpaceOnUse">
      <stop stop-color="#D8E1F2"/>
      <stop offset="1" stop-color="#A8B9D7"/>
    </linearGradient>
  </defs>
</svg>
